<svg width="167" height="32" viewBox="0 0 167 32" fill="none" xmlns="http://www.w3.org/2000/svg">
<path d="M1.79529 31C1.19698 31 0.763194 30.8654 0.49395 30.5961C0.254622 30.3269 0.134959 29.923 0.134959 29.3845V2.14605C0.134959 1.57764 0.254622 1.15882 0.49395 0.889579C0.763194 0.620335 1.19698 0.485713 1.79529 0.485713H14.7639C17.8751 0.485713 20.2235 1.23361 21.8091 2.72941C23.4245 4.22521 24.2323 6.24454 24.2323 8.78739C24.2323 10.2234 23.8733 11.5097 23.1553 12.6466C22.4373 13.7834 21.4351 14.621 20.1487 15.1595C23.4694 16.2066 25.1298 18.54 25.1298 22.1598C25.1298 23.8351 24.7408 25.3459 23.963 26.6921C23.2151 28.0084 22.0783 29.0555 20.5526 29.8333C19.0269 30.6111 17.1422 31 14.8985 31H1.79529ZM13.9561 13.2299C15.422 13.2299 16.5439 12.856 17.3217 12.1081C18.1294 11.3602 18.5333 10.3131 18.5333 8.96689C18.5333 7.50101 18.1593 6.45395 17.4114 5.82571C16.6934 5.16756 15.5267 4.83849 13.9113 4.83849H5.87882V13.2299H13.9561ZM14.6292 26.6472C16.2746 26.6472 17.4862 26.2284 18.264 25.3908C19.0419 24.5232 19.4308 23.4163 19.4308 22.0701C19.4308 20.5145 18.9521 19.3477 17.9948 18.5699C17.0674 17.7622 15.7661 17.3583 14.0908 17.3583H5.87882V26.6472H14.6292ZM41.162 31.6731C38.8286 31.6731 36.7195 31.2842 34.8348 30.5064C32.9501 29.6987 31.4393 28.4721 30.3025 26.8267C29.1956 25.1514 28.6422 23.0723 28.6422 20.5892C28.6422 16.7301 29.6743 13.7983 31.7385 11.7939C33.8027 9.78958 36.7345 8.78739 40.5338 8.78739C44.3032 8.78739 47.1452 9.75966 49.0598 11.7042C51.0044 13.6487 51.9766 16.4608 51.9766 20.1405C51.9766 21.1876 51.498 21.7111 50.5407 21.7111H34.0719C34.0719 23.6855 34.76 25.2113 36.1361 26.2882C37.5123 27.3353 39.4269 27.8588 41.88 27.8588C44.2434 27.8588 46.3674 27.3203 48.2521 26.2434C48.4615 26.1237 48.6261 26.0639 48.7457 26.0639C48.9551 26.0639 49.1197 26.1985 49.2393 26.4677L50.3163 28.3973C50.4061 28.5768 50.4509 28.7413 50.4509 28.8909C50.4509 29.1003 50.3163 29.2948 50.0471 29.4743C48.8205 30.2222 47.4892 30.7756 46.0533 31.1346C44.6472 31.4936 43.0168 31.6731 41.162 31.6731ZM46.7713 18.3904C46.7713 16.5356 46.2477 15.0847 45.2007 14.0376C44.1835 12.9906 42.6429 12.4671 40.5787 12.4671C38.4845 12.4671 36.8691 13.0055 35.7323 14.0825C34.6254 15.1595 34.0719 16.5955 34.0719 18.3904H46.7713ZM58.0192 31C57.4209 31 56.9871 30.8654 56.7179 30.5961C56.4785 30.3269 56.3589 29.923 56.3589 29.3845V2.14605C56.3589 1.57764 56.4785 1.15882 56.7179 0.889579C56.9871 0.620335 57.4209 0.485713 58.0192 0.485713H60.3975C60.9958 0.485713 61.4296 0.620335 61.6989 0.889579C61.9681 1.15882 62.1027 1.57764 62.1027 2.14605V29.3845C62.1027 29.923 61.9681 30.3269 61.6989 30.5961C61.4595 30.8654 61.0258 31 60.3975 31H58.0192ZM67.8957 31C67.3871 31 67.0281 30.9103 66.8187 30.7308C66.6392 30.5213 66.5495 30.1773 66.5495 29.6987C66.5495 28.8909 66.6392 28.2926 66.8187 27.9037C66.9982 27.5148 67.417 26.9763 68.0752 26.2882L80.0116 13.8581H68.6585C68.0602 13.8581 67.6264 13.7385 67.3572 13.4992C67.0879 13.2598 66.9533 12.856 66.9533 12.2876V10.9862C66.9533 10.4178 67.0879 10.0289 67.3572 9.81949C67.6264 9.58017 68.0602 9.4605 68.6585 9.4605H85.935C86.4137 9.4605 86.7427 9.56521 86.9222 9.77462C87.1017 9.95412 87.1915 10.2832 87.1915 10.7618C87.1915 11.5696 87.0868 12.1978 86.8774 12.6466C86.6979 13.0654 86.309 13.5889 85.7106 14.2171L74.1332 26.6472H85.935C86.5333 26.6472 86.9671 26.7818 87.2364 27.0511C87.5056 27.2904 87.6402 27.6943 87.6402 28.2627V29.4743C87.6402 30.0128 87.5056 30.4017 87.2364 30.641C86.9671 30.8803 86.5333 31 85.935 31H67.8957ZM103.653 31.6731C101.319 31.6731 99.21 31.2842 97.3253 30.5064C95.4406 29.6987 93.9298 28.4721 92.793 26.8267C91.6861 25.1514 91.1327 23.0723 91.1327 20.5892C91.1327 16.7301 92.1648 13.7983 94.229 11.7939C96.2932 9.78958 99.2249 8.78739 103.024 8.78739C106.794 8.78739 109.636 9.75966 111.55 11.7042C113.495 13.6487 114.467 16.4608 114.467 20.1405C114.467 21.1876 113.988 21.7111 113.031 21.7111H96.5624C96.5624 23.6855 97.2505 25.2113 98.6266 26.2882C100.003 27.3353 101.917 27.8588 104.37 27.8588C106.734 27.8588 108.858 27.3203 110.743 26.2434C110.952 26.1237 111.117 26.0639 111.236 26.0639C111.446 26.0639 111.61 26.1985 111.73 26.4677L112.807 28.3973C112.897 28.5768 112.941 28.7413 112.941 28.8909C112.941 29.1003 112.807 29.2948 112.538 29.4743C111.311 30.2222 109.98 30.7756 108.544 31.1346C107.138 31.4936 105.507 31.6731 103.653 31.6731ZM109.262 18.3904C109.262 16.5356 108.738 15.0847 107.691 14.0376C106.674 12.9906 105.133 12.4671 103.069 12.4671C100.975 12.4671 99.3596 13.0055 98.2228 14.0825C97.1159 15.1595 96.5624 16.5955 96.5624 18.3904H109.262ZM129.44 31.6731C127.405 31.6731 125.416 31.4039 123.471 30.8654C121.527 30.297 119.986 29.5939 118.849 28.7563V2.14605C118.849 1.57764 118.969 1.15882 119.208 0.889579C119.478 0.620335 119.911 0.485713 120.51 0.485713H122.798C123.397 0.485713 123.83 0.620335 124.1 0.889579C124.369 1.15882 124.503 1.57764 124.503 2.14605V10.8965C125.281 10.2084 126.298 9.68487 127.555 9.32588C128.811 8.96689 130.158 8.78739 131.594 8.78739C134.974 8.78739 137.577 9.71479 139.402 11.5696C141.226 13.4244 142.139 16.0271 142.139 19.3776C142.139 23.2667 141.062 26.2882 138.908 28.4422C136.784 30.5961 133.628 31.6731 129.44 31.6731ZM129.17 27.5896C131.653 27.5896 133.478 26.9314 134.645 25.6151C135.842 24.2689 136.44 22.2346 136.44 19.5123C136.44 17.2387 135.961 15.5783 135.004 14.5313C134.077 13.4543 132.506 12.9158 130.292 12.9158C128.766 12.9158 127.42 13.3047 126.254 14.0825C125.087 14.8304 124.503 15.9373 124.503 17.4032V26.5126C125.012 26.8417 125.7 27.1109 126.568 27.3203C127.435 27.4998 128.303 27.5896 129.17 27.5896ZM153.348 31.6731C150.895 31.6731 148.921 31 147.425 29.6538C145.929 28.2776 145.181 26.2434 145.181 23.5509V11.1208C145.181 10.5524 145.301 10.1336 145.54 9.86437C145.809 9.59512 146.243 9.4605 146.842 9.4605H149.22C149.818 9.4605 150.252 9.59512 150.521 9.86437C150.79 10.1336 150.925 10.5524 150.925 11.1208V23.4163C150.925 24.8523 151.299 25.9143 152.047 26.6024C152.795 27.2605 153.902 27.5896 155.368 27.5896C156.923 27.5896 158.225 27.1558 159.272 26.2882C160.319 25.4207 160.842 24.2988 160.842 22.9227V11.1208C160.842 10.5524 160.977 10.1336 161.246 9.86437C161.515 9.59512 161.949 9.4605 162.547 9.4605H164.881C165.479 9.4605 165.913 9.59512 166.182 9.86437C166.451 10.1336 166.586 10.5524 166.586 11.1208V29.7884C166.586 30.2671 166.511 30.5961 166.362 30.7756C166.212 30.9252 165.898 31 165.419 31H162.906C162.577 31 162.338 30.9402 162.188 30.8205C162.039 30.6709 161.949 30.4466 161.919 30.1474L161.74 28.2627C159.705 30.5363 156.908 31.6731 153.348 31.6731Z" fill="white"/>
</svg>
