<svg width="19" height="18" viewBox="0 0 19 18" fill="none" xmlns="http://www.w3.org/2000/svg">
<path d="M3.38477 8.625C2.77477 8.625 2.21227 8.4725 1.69727 8.1675C1.18227 7.8625 0.772266 7.4525 0.467266 6.9375C0.162266 6.4225 0.00976562 5.86 0.00976562 5.25C0.00976562 4.64 0.162266 4.0775 0.467266 3.5625C0.772266 3.0475 1.18227 2.6375 1.69727 2.3325C2.21227 2.0275 2.77477 1.875 3.38477 1.875C3.99477 1.875 4.55727 2.0275 5.07227 2.3325C5.58727 2.6375 5.99727 3.0475 6.30227 3.5625C6.60727 4.0775 6.75977 4.64 6.75977 5.25C6.75977 5.86 6.60727 6.4225 6.30227 6.9375C5.99727 7.4525 5.58727 7.8625 5.07227 8.1675C4.55727 8.4725 3.99477 8.625 3.38477 8.625ZM3.75977 16.125C3.14977 16.125 2.58727 15.9725 2.07227 15.6675C1.55727 15.3625 1.14727 14.9525 0.842266 14.4375C0.537266 13.9225 0.384766 13.36 0.384766 12.75C0.384766 12.14 0.537266 11.5775 0.842266 11.0625C1.14727 10.5475 1.55727 10.1375 2.07227 9.8325C2.58727 9.5275 3.14977 9.375 3.75977 9.375C4.36977 9.375 4.93227 9.5275 5.44727 9.8325C5.96227 10.1375 6.37227 10.5475 6.67727 11.0625C6.98227 11.5775 7.13477 12.14 7.13477 12.75C7.13477 13.36 6.98227 13.9225 6.67727 14.4375C6.37227 14.9525 5.96227 15.3625 5.44727 15.6675C4.93227 15.9725 4.36977 16.125 3.75977 16.125ZM11.2598 8.625C10.6498 8.625 10.0873 8.4725 9.57227 8.1675C9.05727 7.8625 8.64727 7.4525 8.34227 6.9375C8.03727 6.4225 7.88477 5.86 7.88477 5.25C7.88477 4.64 8.03727 4.0775 8.34227 3.5625C8.64727 3.0475 9.05727 2.6375 9.57227 2.3325C10.0873 2.0275 10.6498 1.875 11.2598 1.875C11.8698 1.875 12.4323 2.0275 12.9473 2.3325C13.4623 2.6375 13.8723 3.0475 14.1773 3.5625C14.4823 4.0775 14.6348 4.64 14.6348 5.25C14.6348 5.86 14.4823 6.4225 14.1773 6.9375C13.8723 7.4525 13.4623 7.8625 12.9473 8.1675C12.4323 8.4725 11.8698 8.625 11.2598 8.625ZM11.2598 16.125C10.6498 16.125 10.0873 15.9725 9.57227 15.6675C9.05727 15.3625 8.64727 14.9525 8.34227 14.4375C8.03727 13.9225 7.88477 13.36 7.88477 12.75C7.88477 12.14 8.03727 11.5775 8.34227 11.0625C8.64727 10.5475 9.05727 10.1375 9.57227 9.8325C10.0873 9.5275 10.6498 9.375 11.2598 9.375C11.8698 9.375 12.4323 9.5275 12.9473 9.8325C13.4623 10.1375 13.8723 10.5475 14.1773 11.0625C14.4823 11.5775 14.6348 12.14 14.6348 12.75C14.6348 13.36 14.4823 13.9225 14.1773 14.4375C13.8723 14.9525 13.4623 15.3625 12.9473 15.6675C12.4323 15.9725 11.8698 16.125 11.2598 16.125ZM3.38477 7.125C3.72477 7.125 4.03727 7.04 4.32227 6.87C4.60727 6.7 4.83477 6.4725 5.00477 6.1875C5.17477 5.9025 5.25977 5.59 5.25977 5.25C5.25977 4.91 5.17477 4.5975 5.00477 4.3125C4.83477 4.0275 4.60727 3.8 4.32227 3.63C4.03727 3.46 3.72477 3.375 3.38477 3.375C3.04477 3.375 2.73227 3.46 2.44727 3.63C2.16227 3.8 1.93477 4.0275 1.76477 4.3125C1.59477 4.5975 1.50977 4.91 1.50977 5.25C1.50977 5.59 1.59477 5.9025 1.76477 6.1875C1.93477 6.4725 2.16227 6.7 2.44727 6.87C2.73227 7.04 3.04477 7.125 3.38477 7.125ZM3.75977 14.625C4.09977 14.625 4.41227 14.54 4.69727 14.37C4.98227 14.2 5.20977 13.9725 5.37977 13.6875C5.54977 13.4025 5.63477 13.09 5.63477 12.75C5.63477 12.41 5.54977 12.0975 5.37977 11.8125C5.20977 11.5275 4.98227 11.3 4.69727 11.13C4.41227 10.96 4.09977 10.875 3.75977 10.875C3.41977 10.875 3.10727 10.96 2.82227 11.13C2.53727 11.3 2.30977 11.5275 2.13977 11.8125C1.96977 12.0975 1.88477 12.41 1.88477 12.75C1.88477 13.09 1.96977 13.4025 2.13977 13.6875C2.30977 13.9725 2.53727 14.2 2.82227 14.37C3.10727 14.54 3.41977 14.625 3.75977 14.625ZM11.2598 7.125C11.5998 7.125 11.9123 7.04 12.1973 6.87C12.4823 6.7 12.7098 6.4725 12.8798 6.1875C13.0498 5.9025 13.1348 5.59 13.1348 5.25C13.1348 4.91 13.0498 4.5975 12.8798 4.3125C12.7098 4.0275 12.4823 3.8 12.1973 3.63C11.9123 3.46 11.5998 3.375 11.2598 3.375C10.9198 3.375 10.6073 3.46 10.3223 3.63C10.0373 3.8 9.80977 4.0275 9.63977 4.3125C9.46977 4.5975 9.38477 4.91 9.38477 5.25C9.38477 5.59 9.46977 5.9025 9.63977 6.1875C9.80977 6.4725 10.0373 6.7 10.3223 6.87C10.6073 7.04 10.9198 7.125 11.2598 7.125ZM11.2598 14.625C11.5998 14.625 11.9123 14.54 12.1973 14.37C12.4823 14.2 12.7098 13.9725 12.8798 13.6875C13.0498 13.4025 13.1348 13.09 13.1348 12.75C13.1348 12.41 13.0498 12.0975 12.8798 11.8125C12.7098 11.5275 12.4823 11.3 12.1973 11.13C11.9123 10.96 11.5998 10.875 11.2598 10.875C10.9198 10.875 10.6073 10.96 10.3223 11.13C10.0373 11.3 9.80977 11.5275 9.63977 11.8125C9.46977 12.0975 9.38477 12.41 9.38477 12.75C9.38477 13.09 9.46977 13.4025 9.63977 13.6875C9.80977 13.9725 10.0373 14.2 10.3223 14.37C10.6073 14.54 10.9198 14.625 11.2598 14.625Z" fill="white"/>
</svg>
