<svg width="19" height="19" viewBox="0 0 19 19" fill="none" xmlns="http://www.w3.org/2000/svg">
<path d="M7.50977 2C8.86977 2 10.1298 2.34 11.2898 3.02C12.4198 3.69 13.3198 4.59 13.9898 5.72C14.6698 6.88 15.0098 8.14 15.0098 9.5C15.0098 10.86 14.6698 12.12 13.9898 13.28C13.3198 14.41 12.4198 15.31 11.2898 15.98C10.1298 16.66 8.86977 17 7.50977 17C6.14977 17 4.88977 16.66 3.72977 15.98C2.59977 15.31 1.69977 14.41 1.02977 13.28C0.349766 12.12 0.00976562 10.86 0.00976562 9.5C0.00976562 8.14 0.349766 6.88 1.02977 5.72C1.69977 4.59 2.59977 3.69 3.72977 3.02C4.88977 2.34 6.14977 2 7.50977 2ZM7.50977 3.5C6.41977 3.5 5.40977 3.775 4.47977 4.325C3.57977 4.855 2.86477 5.57 2.33477 6.47C1.78477 7.4 1.50977 8.41 1.50977 9.5C1.50977 10.59 1.78477 11.6 2.33477 12.53C2.86477 13.43 3.57977 14.145 4.47977 14.675C5.40977 15.225 6.41977 15.5 7.50977 15.5C8.59977 15.5 9.60977 15.225 10.5398 14.675C11.4398 14.145 12.1548 13.43 12.6848 12.53C13.2348 11.6 13.5098 10.59 13.5098 9.5C13.5098 8.41 13.2348 7.4 12.6848 6.47C12.1548 5.57 11.4398 4.855 10.5398 4.325C9.60977 3.775 8.59977 3.5 7.50977 3.5ZM7.50977 4.25C8.25977 4.25 8.97477 4.4 9.65477 4.7L8.48477 5.87C8.16477 5.79 7.83977 5.75 7.50977 5.75C6.82977 5.75 6.20227 5.9175 5.62727 6.2525C5.05227 6.5875 4.59727 7.0425 4.26227 7.6175C3.92727 8.1925 3.75977 8.82 3.75977 9.5C3.75977 10.01 3.85727 10.4925 4.05227 10.9475C4.24727 11.4025 4.51477 11.805 4.85477 12.155L3.80477 13.205L3.68477 13.085C3.23477 12.615 2.88477 12.075 2.63477 11.465C2.38477 10.835 2.25977 10.18 2.25977 9.5C2.25977 8.55 2.49977 7.665 2.97977 6.845C3.43977 6.055 4.06477 5.43 4.85477 4.97C5.67477 4.49 6.55977 4.25 7.50977 4.25ZM12.3098 7.355C12.6098 8.035 12.7598 8.75 12.7598 9.5C12.7598 10.21 12.6198 10.89 12.3398 11.54C12.0798 12.17 11.7048 12.73 11.2148 13.22L10.1648 12.155C10.5048 11.805 10.7723 11.4025 10.9673 10.9475C11.1623 10.4925 11.2598 10.01 11.2598 9.5C11.2598 9.17 11.2148 8.845 11.1248 8.525L12.3098 7.355ZM10.6898 5.255L11.7548 6.32L8.96477 9.11C8.99477 9.24 9.00977 9.37 9.00977 9.5C9.00977 9.91 8.86227 10.2625 8.56727 10.5575C8.27227 10.8525 7.91977 11 7.50977 11C7.09977 11 6.74727 10.8525 6.45227 10.5575C6.15727 10.2625 6.00977 9.91 6.00977 9.5C6.00977 9.09 6.15727 8.7375 6.45227 8.4425C6.74727 8.1475 7.09977 8 7.50977 8C7.63977 8 7.76977 8.015 7.89977 8.045L10.6898 5.255Z" fill="white"/>
</svg>
